<svg xmlns="http://www.w3.org/2000/svg" viewBox="0 0 218.01 149.41"><defs><style>.cls-1{font-size:68.37px;font-family:ConeriaScriptDemo, Coneria Script Demo;}.cls-1,.cls-2{fill:#fff;}</style></defs><g id="Layer_2" data-name="Layer 2"><g id="Layer_1-2" data-name="Layer 1"><text class="cls-1" transform="translate(55.89 105.01) scale(0.92 1)">Evento</text><path class="cls-2" d="M28.7,22.89a31.44,31.44,0,0,0,7.44,1.74,10.07,10.07,0,0,0,3.61-.17,4.1,4.1,0,0,0,1.48-.73,2,2,0,0,0,.49-.52,1.73,1.73,0,0,0,.24-.66,5.68,5.68,0,0,0-1-3.36,13,13,0,0,0-2.48-3,18.47,18.47,0,0,0-6.73-3.89A20.84,20.84,0,0,0,28,11.42a10.31,10.31,0,0,0-3.76.05,9.51,9.51,0,0,0-5.85,4.13,6.57,6.57,0,0,0-.28,6.57,16.43,16.43,0,0,0,4.72,5.61A29.48,29.48,0,0,0,36.35,34.4a21,21,0,0,0,7.46,0,18.86,18.86,0,0,0,6.92-2.61,12.13,12.13,0,0,0,1.45-1.08,6.17,6.17,0,0,0,1.13-1.19,9.45,9.45,0,0,0,1.1-3.28,21.38,21.38,0,0,0-.15-7.52A19,19,0,0,0,46.1,6.06,24.26,24.26,0,0,0,39,2.81a40.13,40.13,0,0,0-7.78-1.37A45.93,45.93,0,0,0,15.53,2.68,21,21,0,0,0,8.6,6,15.06,15.06,0,0,0,5.86,8.61a14.05,14.05,0,0,0-2,3.18,18.15,18.15,0,0,0-1.7,7.35,19.25,19.25,0,0,0,1.15,7.45A21.07,21.07,0,0,0,7.2,33a21.72,21.72,0,0,0,6,4.61,31.18,31.18,0,0,0,7.22,2.51,48.28,48.28,0,0,0,7.7,1.24,66.51,66.51,0,0,0,7.86.22,45.08,45.08,0,0,0,7.72-.78,12.71,12.71,0,0,0,6-4,16.48,16.48,0,0,0,2.14-3,10.46,10.46,0,0,0,.71-1.63,4.69,4.69,0,0,0,.27-1.46l2.5.1a9.7,9.7,0,0,1-1.43,4.2,19.87,19.87,0,0,1-2.49,3.41,15.3,15.3,0,0,1-7.17,4.65A47.49,47.49,0,0,1,36,44.17a61.88,61.88,0,0,1-8.17-.08A39.44,39.44,0,0,1,11.9,40a24,24,0,0,1-6.55-5.31,23.17,23.17,0,0,1-4.21-7.28A21.32,21.32,0,0,1,0,19.05,20.24,20.24,0,0,1,2.1,10.93,16.56,16.56,0,0,1,4.45,7.42,16.81,16.81,0,0,1,7.58,4.59a22.54,22.54,0,0,1,7.53-3.4A47.2,47.2,0,0,1,31.29.29a46.22,46.22,0,0,1,8,1.56,30.71,30.71,0,0,1,7.42,3.34,18.87,18.87,0,0,1,1.68,1.18,19.58,19.58,0,0,1,1.57,1.32c.54.43,1,1,1.49,1.43s.93,1,1.33,1.6a20.91,20.91,0,0,1,3.67,7.48,21.81,21.81,0,0,1,.47,8.41,11.7,11.7,0,0,1-1.37,4.3,12,12,0,0,1-3.27,3.14,21.62,21.62,0,0,1-7.9,3.25,24,24,0,0,1-8.49,0,27.85,27.85,0,0,1-8-2.68A32.52,32.52,0,0,1,20.94,30a19.11,19.11,0,0,1-5.21-6.8,9.41,9.41,0,0,1-.66-4.5,8.75,8.75,0,0,1,1.65-4.2A11.28,11.28,0,0,1,24,10.05a17.47,17.47,0,0,1,8.19,1.25,23.43,23.43,0,0,1,7,4.2,18.91,18.91,0,0,1,2.78,3.07,6.92,6.92,0,0,1,1.49,4.12,3.3,3.3,0,0,1-.32,1.25,3.55,3.55,0,0,1-.77,1,5.73,5.73,0,0,1-2,1.24,12.05,12.05,0,0,1-4.32.63,24.91,24.91,0,0,1-4.16-.53,28,28,0,0,1-4-1.13Z"/><path class="cls-2" d="M1.17,22a106,106,0,0,0,2.14,14.4A62.87,62.87,0,0,0,7.75,50.07c2.08,4.28,4.81,8.24,8.87,10.59a30.87,30.87,0,0,0,6.36,3,19.87,19.87,0,0,0,6.78,1.11,27.21,27.21,0,0,0,13.18-4.25,14,14,0,0,0,2.65-2.08l1.17-1.34,1.1-1.39a34.42,34.42,0,0,0,3.64-6.09,44.71,44.71,0,0,0,3.56-13.87,67,67,0,0,0,.37-14.5l.63-.12a43.66,43.66,0,0,1,.69,7.37c.06,2.47,0,4.93-.18,7.4a46.61,46.61,0,0,1-3.23,14.54A32.25,32.25,0,0,1,49.63,57l-1.14,1.51L47.27,60a15.52,15.52,0,0,1-3.06,2.51,30.52,30.52,0,0,1-6.86,3.3,26.16,26.16,0,0,1-7.53,1.43A22.15,22.15,0,0,1,22.21,66a31.15,31.15,0,0,1-6.85-3.31,25.67,25.67,0,0,1-3.07-2.31,22.69,22.69,0,0,1-2.61-2.86,31.36,31.36,0,0,1-3.81-6.54A64.18,64.18,0,0,1,1.72,36.66,94,94,0,0,1,.34,22Z"/><path class="cls-2" d="M27.93,65.34a61.07,61.07,0,0,1,8.2,20.28,52.59,52.59,0,0,1,1,11c0,.92-.11,1.85-.17,2.77l-.1,1.39c-.07.46-.16.92-.23,1.38l-.48,2.74-.74,2.69c-.48,1.83-1.08,3.43-1.63,5.14s-1.06,3.39-1.48,5.11a77.26,77.26,0,0,0-2.15,10.39,51.35,51.35,0,0,0-.39,10.59,49.94,49.94,0,0,0,.59,5.3c.3,1.77.66,3.52,1,5.29a57.42,57.42,0,0,1-2.76-10.47,49.32,49.32,0,0,1-.51-5.44c0-.91,0-1.82,0-2.73s.06-1.83.13-2.74A71.3,71.3,0,0,1,30,117.25c.38-1.78.89-3.52,1.35-5.27s1.09-3.51,1.49-5.16l.66-2.51.4-2.57c.06-.42.14-.85.19-1.28l.08-1.3c0-.86.13-1.73.16-2.6a59.74,59.74,0,0,0-.92-10.4A67.71,67.71,0,0,0,30.54,76a66.49,66.49,0,0,0-4.3-9.62Z"/><path class="cls-2" d="M36.24,98.54a.19.19,0,0,1,0-.13v0l0-.08.06-.18.11-.35.24-.69c.17-.46.34-.92.52-1.37.36-.91.76-1.8,1.19-2.69a32.57,32.57,0,0,1,3-5.08,19.32,19.32,0,0,1,4.2-4.32,11.8,11.8,0,0,1,5.8-2.3h0l1-.07v1a16,16,0,0,1-.29,3.29c-.09.54-.25,1.06-.36,1.58s-.34,1-.51,1.54A14.54,14.54,0,0,1,47.78,94a9.22,9.22,0,0,1-1.21,1l-.63.49c-.22.16-.46.27-.68.41-.47.26-.92.54-1.39.78l-1.46.59c-.25.09-.48.2-.73.28l-.76.19-1.52.38C38.34,98.35,37.23,98.41,36.24,98.54Zm.14-.11,2.93-.66,1.45-.48.72-.24c.24-.09.46-.22.69-.33l1.36-.66c.43-.26.83-.56,1.25-.84a6.14,6.14,0,0,0,.61-.43l.55-.5A8.76,8.76,0,0,0,47,93.24a13.28,13.28,0,0,0,2.84-5.11,16,16,0,0,0,.63-5.74l1.05.91h0a10,10,0,0,0-5.06,1.58,18,18,0,0,0-4.2,3.71A32.63,32.63,0,0,0,39,93.3c-.48.83-.94,1.69-1.37,2.56-.22.43-.42.87-.62,1.31l-.29.67-.14.33-.07.17,0,.08,0,0A0,0,0,0,0,36.38,98.43Z"/></g></g></svg>