<svg xmlns="http://www.w3.org/2000/svg" width="20" height="26" viewBox="0 0 20 26">
  <path id="bell" d="M73.021,20.691a4.023,4.023,0,0,1-1.193-1.672,19.842,19.842,0,0,1-1.244-7.643c0-.01,0-.019,0-.029a7.389,7.389,0,0,0-4.222-6.691V2.9A2.858,2.858,0,0,0,63.551,0h-.233a2.858,2.858,0,0,0-2.811,2.9v1.76a7.39,7.39,0,0,0-4.222,6.72,19.842,19.842,0,0,1-1.244,7.643,4.022,4.022,0,0,1-1.193,1.672.747.747,0,0,0-.4.842.758.758,0,0,0,.743.6h5.428a3.813,3.813,0,1,0,7.624,0h5.428a.758.758,0,0,0,.743-.6A.747.747,0,0,0,73.021,20.691ZM61.988,2.9a1.352,1.352,0,0,1,1.33-1.37h.233a1.352,1.352,0,0,1,1.33,1.37V4.162a6.976,6.976,0,0,0-2.893,0V2.9Zm1.446,21.578A2.369,2.369,0,0,1,61.1,22.129h4.662A2.369,2.369,0,0,1,63.434,24.474ZM66.416,20.6H55.882c.128-.205.258-.438.388-.7a19.768,19.768,0,0,0,1.5-8.526,5.671,5.671,0,1,1,11.337,0c0,.009,0,.019,0,.028A19.728,19.728,0,0,0,70.6,19.9c.13.263.26.5.388.7Z" transform="translate(-53.434)" fill="#eb2e45"/>
</svg>
