<svg xmlns="http://www.w3.org/2000/svg" width="10.676" height="15.682" viewBox="0 0 10.676 15.682">
  <g id="location-pin" transform="translate(-78.907 0.05)">
    <g id="Group_59" data-name="Group 59" transform="translate(78.957)">
      <path id="Path_37" data-name="Path 37" d="M84.245,0a5.294,5.294,0,0,0-5.288,5.288c0,1.172.69,2.954,2.171,5.608,1.011,1.811,2.017,3.341,2.059,3.405l.727,1.1a.4.4,0,0,0,.661,0l.727-1.1c.042-.064,1.041-1.58,2.059-3.405,1.481-2.654,2.171-4.436,2.171-5.608A5.294,5.294,0,0,0,84.245,0ZM86.67,10.51c-1,1.8-1.987,3.292-2.029,3.355l-.4.6-.4-.6c-.042-.063-1.032-1.569-2.029-3.355-1.374-2.462-2.071-4.219-2.071-5.222a4.5,4.5,0,0,1,8.992,0C88.741,6.291,88.044,8.048,86.67,10.51Z" transform="translate(-78.957)" stroke="#707070" stroke-width="0.1"/>
      <path id="Path_38" data-name="Path 38" d="M156.223,73.291a2.932,2.932,0,1,0,2.932,2.932A2.935,2.935,0,0,0,156.223,73.291Zm0,5.072a2.14,2.14,0,1,1,2.14-2.14A2.142,2.142,0,0,1,156.223,78.363Z" transform="translate(-150.935 -70.968)" stroke="#707070" stroke-width="0.1"/>
    </g>
  </g>
</svg>
