<svg xmlns="http://www.w3.org/2000/svg" width="15.669" height="14.992" viewBox="0 0 15.669 14.992">
  <g id="Group_48" data-name="Group 48" transform="translate(0.514 0.5)">
    <path id="Path_23" data-name="Path 23" d="M431.748,215.989a1.007,1.007,0,0,0-.813-.685l-3.843-.558-1.719-3.479a1.046,1.046,0,0,0-1.8,0l-1.719,3.479-3.834.558a1.006,1.006,0,0,0-.556,1.717l2.779,2.7-.655,3.824a1.006,1.006,0,0,0,1.461,1.061l3.425-1.806,3.435,1.806a1,1,0,0,0,.468.116,1.021,1.021,0,0,0,.594-.191,1.01,1.01,0,0,0,.4-.985l-.655-3.824,2.779-2.7A1,1,0,0,0,431.748,215.989Zm-4.82,2.659a1.007,1.007,0,0,0-.291.892l.4,2.336-2.1-1.1a1,1,0,0,0-.936,0l-2.089,1.1.4-2.333a1.006,1.006,0,0,0-.291-.892L420.328,217l2.335-.34a1.006,1.006,0,0,0,.757-.55l1.049-2.126,1.049,2.126a1,1,0,0,0,.758.55l2.344.341Z" transform="translate(-417.155 -210.75)" fill="#1f1f1f" stroke="#fff" stroke-width="1"/>
  </g>
</svg>
