<svg xmlns="http://www.w3.org/2000/svg" width="73.883" height="88.358" viewBox="0 0 73.883 88.358">
  <g id="user_2_" data-name="user (2)" transform="translate(0.5 0.5)">
    <path id="Path_39" data-name="Path 39" d="M108.073,42.081a20.36,20.36,0,0,0,14.877-6.164,20.36,20.36,0,0,0,6.164-14.877,20.361,20.361,0,0,0-6.164-14.877,21.036,21.036,0,0,0-29.753,0A20.359,20.359,0,0,0,87.032,21.04,20.36,20.36,0,0,0,93.2,35.917a20.366,20.366,0,0,0,14.877,6.164ZM96.816,9.784a15.916,15.916,0,0,1,22.513,0,15.212,15.212,0,0,1,4.665,11.256A15.211,15.211,0,0,1,119.33,32.3a15.914,15.914,0,0,1-22.513,0A15.208,15.208,0,0,1,92.151,21.04,15.21,15.21,0,0,1,96.816,9.784Zm0,0" transform="translate(-72.182 0)" fill="#a5a5a5" stroke="#e6e6e6" stroke-width="1"/>
    <path id="Path_40" data-name="Path 40" d="M72.706,272.293a51.966,51.966,0,0,0-.708-5.52,43.492,43.492,0,0,0-1.358-5.55,27.415,27.415,0,0,0-2.282-5.176,19.512,19.512,0,0,0-3.44-4.483,15.168,15.168,0,0,0-4.942-3.105,17.081,17.081,0,0,0-6.309-1.142c-.892,0-1.754.366-3.42,1.45-1.025.668-2.224,1.442-3.562,2.3a20.41,20.41,0,0,1-4.609,2.031,17.9,17.9,0,0,1-11.276,0,20.352,20.352,0,0,1-4.606-2.03c-1.326-.847-2.525-1.62-3.566-2.3-1.664-1.084-2.527-1.45-3.418-1.45a17.058,17.058,0,0,0-6.308,1.143,15.155,15.155,0,0,0-4.943,3.105,19.516,19.516,0,0,0-3.439,4.483,27.465,27.465,0,0,0-2.281,5.177,43.6,43.6,0,0,0-1.357,5.549,51.619,51.619,0,0,0-.708,5.522C.058,273.963,0,275.7,0,277.454c0,4.56,1.45,8.252,4.308,10.974a15.508,15.508,0,0,0,11.1,4.049H57.473a15.509,15.509,0,0,0,11.1-4.049c2.859-2.721,4.309-6.414,4.309-10.975,0-1.76-.06-3.5-.177-5.16Zm-7.662,12.426a10.441,10.441,0,0,1-7.572,2.639H15.41a10.441,10.441,0,0,1-7.572-2.638c-1.83-1.742-2.719-4.119-2.719-7.266,0-1.637.054-3.253.162-4.8a46.552,46.552,0,0,1,.64-4.971,38.446,38.446,0,0,1,1.194-4.893,22.361,22.361,0,0,1,1.857-4.209,14.465,14.465,0,0,1,2.528-3.313,10.062,10.062,0,0,1,3.288-2.044,11.779,11.779,0,0,1,4.032-.778c.179.1.5.277,1.016.615,1.052.686,2.265,1.468,3.606,2.325a25.364,25.364,0,0,0,5.786,2.585,23.014,23.014,0,0,0,14.425,0,25.392,25.392,0,0,0,5.789-2.587c1.372-.877,2.551-1.637,3.6-2.323.517-.337.836-.519,1.016-.615a11.788,11.788,0,0,1,4.033.778,10.076,10.076,0,0,1,3.287,2.044,14.423,14.423,0,0,1,2.528,3.314,22.285,22.285,0,0,1,1.857,4.208,38.358,38.358,0,0,1,1.194,4.893,46.945,46.945,0,0,1,.64,4.973h0c.109,1.546.163,3.161.164,4.8,0,3.148-.89,5.525-2.719,7.265Zm0,0" transform="translate(0 -205.119)" fill="#a5a5a5" stroke="#e6e6e6" stroke-width="1"/>
  </g>
</svg>
